PathFileType	4	(X/Y/Z)	C:\Users\u0101727\Documents\MyRepositories\predictivesimulations\OpenSimModel\subject1\TRC\gait_14.trc																																																																																																																																																																																
DataRate	CameraRate	NumFrames	NumMarkers	Units	OrigDataRate	OrigDataStartFrame	OrigNumFrames																																																																																																																																																																												
100	100	4	59	m	100	241	642																																																																																																																																																																												
Frame#	Times		LASI		RASI		LKNE		LTHI1		LTHI2		LTHI3		LTIB1		LTIB2		foot_l6		foot_l9		RTHI3		RANK		RTIB1		RTIB2		RTIB3		Foot_r3		Foot_r5		Foot_r6		Foot_r7		Foot_r9		RSHO		LSHO		rad_l2		hum_r2		rad_r2		RH		CLAV		RW1		LH		LW1		hum_l2		RKNE		Foot_r8		RELB		LKNE_med		Foot_r4		LANK		RW2		foot_l5		LTIB3		RTHI2		foot_l8		foot_l7		LW2		foot_l4		RKNE_med		RANK_med		Foot_r10		RPSI		RTHI1		LANK_med		LPSI		Foot_r1		Foot_r2		LELB		foot_l1		foot_l2		foot_l10		foot_l3																																																												
			X1	Y1	Z1	X2	Y2	Z2	X3	Y3	Z3	X4	Y4	Z4	X5	Y5	Z5	X6	Y6	Z6	X7	Y7	Z7	X8	Y8	Z8	X9	Y9	Z9	X10	Y10	Z10	X11	Y11	Z11	X12	Y12	Z12	X13	Y13	Z13	X14	Y14	Z14	X15	Y15	Z15	X16	Y16	Z16	X17	Y17	Z17	X18	Y18	Z18	X19	Y19	Z19	X20	Y20	Z20	X21	Y21	Z21	X22	Y22	Z22	X23	Y23	Z23	X24	Y24	Z24	X25	Y25	Z25	X26	Y26	Z26	X27	Y27	Z27	X28	Y28	Z28	X29	Y29	Z29	X30	Y30	Z30	X31	Y31	Z31	X32	Y32	Z32	X33	Y33	Z33	X34	Y34	Z34	X35	Y35	Z35	X36	Y36	Z36	X37	Y37	Z37	X38	Y38	Z38	X39	Y39	Z39	X40	Y40	Z40	X41	Y41	Z41	X42	Y42	Z42	X43	Y43	Z43	X44	Y44	Z44	X45	Y45	Z45	X46	Y46	Z46	X47	Y47	Z47	X48	Y48	Z48	X49	Y49	Z49	X50	Y50	Z50	X51	Y51	Z51	X52	Y52	Z52	X53	Y53	Z53	X54	Y54	Z54	X55	Y55	Z55	X56	Y56	Z56	X57	Y57	Z57	X58	Y58	Z58	X59	Y59	Z59
																																																																																																																																																																																			
241	2.41	-1.7323	0.9382	-0.3599	-1.7368	0.93429	-0.1043	-1.7333	0.45632	-0.34723	-1.6796	0.68392	-0.35829	-1.7233	0.67606	-0.41164	-1.6948	0.62979	-0.38364	-1.7546	0.26065	-0.33936	-1.8141	0.26456	-0.37051	-1.6825	0.034546	-0.28346	-1.7521	0.041827	-0.23763	-1.7403	0.69198	-0.044211	-1.9964	0.19165	-0.12884	-1.8117	0.30953	-0.108	-1.8663	0.35672	-0.095031	-1.8655	0.30034	-0.10255	-2.005	0.16571	-0.13543	-1.9473	0.076774	-0.11368	-1.9155	0.066504	-0.15686	-1.8903	0.047456	-0.1931	-1.9382	0.11465	-0.20337	-1.8093	1.3885	-0.055202	-1.7853	1.3858	-0.40486	-1.8075	0.96728	-0.49549	-1.8496	1.2405	-0.021657	-1.844	0.95346	0.049875	-1.8098	0.82315	0.086216	-1.7141	1.3587	-0.24094	-1.7898	0.86938	0.046329	-1.7776	0.78691	-0.52255	-1.7604	0.84149	-0.47573	-1.8156	1.2302	-0.45747	-1.6891	0.44021	-0.11257	-1.92	0.065279	-0.20825	-1.8902	1.0934	-0.0068133	-1.746	0.45227	-0.25616	-1.9938	0.13012	-0.12772	-1.817	0.068871	-0.32751	-1.8541	0.87061	0.071643	-1.7025	0.024907	-0.33182	-1.788	0.21437	-0.35158	-1.7858	0.72689	-0.034727	-1.6895	0.034003	-0.23339	-1.656	0.030142	-0.24367	-1.8171	0.84827	-0.51893	-1.7818	0.023988	-0.32163	-1.7282	0.43532	-0.22692	-1.9737	0.19731	-0.2114	-1.9905	0.16969	-0.20891	0	0	0	0	0	0	0	0	0	0	0	0	0	0	0	0	0	0	0	0	0	0	0	0	0	0	0	0	0	0	0	0	0	
242	2.42	-1.7216	0.93843	-0.35987	-1.7264	0.9357	-0.10442	-1.7299	0.45563	-0.34689	-1.6731	0.68244	-0.35613	-1.7153	0.67539	-0.41077	-1.6877	0.62868	-0.3824	-1.7525	0.26	-0.33876	-1.8118	0.2645	-0.37005	-1.6824	0.034404	-0.28345	-1.752	0.041646	-0.23743	-1.7269	0.69467	-0.043791	-1.9657	0.1843	-0.1288	-1.7867	0.31069	-0.10774	-1.8426	0.35558	-0.095328	-1.8399	0.29963	-0.10217	-1.9727	0.15798	-0.13525	-1.9104	0.072744	-0.11329	-1.8778	0.063937	-0.15635	-1.8516	0.046409	-0.19269	-1.9035	0.1108	-0.20342	-1.7993	1.3896	-0.055613	-1.7731	1.387	-0.4051	-1.7924	0.96884	-0.49579	-1.8402	1.2417	-0.022291	-1.8369	0.9548	0.0497	-1.804	0.82412	0.086506	-1.7027	1.3597	-0.24067	-1.7831	0.87054	0.046951	-1.759	0.7892	-0.52263	-1.7435	0.84437	-0.47555	-1.8023	1.231	-0.45786	-1.6683	0.44523	-0.11246	-1.8825	0.062097	-0.20841	-1.8815	1.0948	-0.0075524	-1.7435	0.45173	-0.2555	-1.9598	0.12322	-0.12739	-1.8169	0.068891	-0.32728	-1.8476	0.87212	0.071388	-1.7025	0.024783	-0.33184	-1.7852	0.2153	-0.3508	-1.7722	0.72909	-0.034225	-1.6891	0.034004	-0.23333	-1.6559	0.030042	-0.24361	-1.7999	0.84993	-0.51919	-1.7818	0.024668	-0.32119	-1.7072	0.43891	-0.2268	-1.9422	0.19029	-0.21121	-1.9571	0.16184	-0.20893	0	0	0	0	0	0	0	0	0	0	0	0	0	0	0	0	0	0	0	0	0	0	0	0	0	0	0	0	0	0	0	0	0	
243	2.43	-1.7107	0.93876	-0.36001	-1.716	0.93705	-0.10495	-1.7266	0.45508	-0.34646	-1.6656	0.68103	-0.3553	-1.7076	0.67493	-0.41013	-1.681	0.62752	-0.38154	-1.7505	0.25964	-0.33811	-1.8098	0.26467	-0.36947	-1.6822	0.034365	-0.28341	-1.7518	0.04144	-0.23723	-1.7114	0.69767	-0.042247	-1.9345	0.17636	-0.12857	-1.7607	0.31192	-0.10711	-1.8201	0.3539	-0.095634	-1.8144	0.29789	-0.10176	-1.94	0.14982	-0.13492	-1.8727	0.068187	-0.11279	-1.8395	0.061191	-0.15611	-1.8123	0.04525	-0.19191	-1.8683	0.10625	-0.20288	-1.7895	1.3903	-0.055989	-1.7609	1.3881	-0.40509	-1.7773	0.97023	-0.49613	-1.8309	1.2428	-0.022696	-1.8297	0.95582	0.049567	-1.7983	0.82492	0.086847	-1.6914	1.3604	-0.2404	-1.7759	0.87173	0.047509	-1.7402	0.79164	-0.52259	-1.7263	0.84675	-0.47515	-1.7893	1.2325	-0.45845	-1.6482	0.45012	-0.11266	-1.844	0.059005	-0.20737	-1.8729	1.0961	-0.0082816	-1.7399	0.45066	-0.25521	-1.9249	0.11583	-0.12687	-1.8166	0.069009	-0.32697	-1.8412	0.87325	0.071233	-1.7027	0.024406	-0.33184	-1.7841	0.2147	-0.35034	-1.7589	0.73097	-0.03334	-1.6895	0.033549	-0.23332	-1.6557	0.029919	-0.24355	-1.7827	0.85108	-0.51909	-1.7817	0.024274	-0.32099	-1.6865	0.44236	-0.22674	-1.9098	0.18304	-0.21104	-1.9244	0.15389	-0.2085	0	0	0	0	0	0	0	0	0	0	0	0	0	0	0	0	0	0	0	0	0	0	0	0	0	0	0	0	0	0	0	0	0	
244	2.44	-1.6988	0.93935	-0.36001	-1.7052	0.93852	-0.10532	-1.7231	0.45432	-0.34599	-1.6581	0.6794	-0.35497	-1.6999	0.67431	-0.40943	-1.6747	0.62615	-0.3812	-1.7487	0.25946	-0.33757	-1.8083	0.26495	-0.36904	-1.6821	0.034274	-0.28333	-1.7516	0.041286	-0.237	-1.6982	0.70014	-0.040862	-1.9024	0.16784	-0.12865	-1.7357	0.31169	-0.10656	-1.797	0.35138	-0.095795	-1.7892	0.2955	-0.10173	-1.9061	0.14095	-0.13476	-1.8346	0.063634	-0.11183	-1.8009	0.058509	-0.15492	-1.7725	0.04377	-0.19074	-1.832	0.1012	-0.20229	-1.7796	1.3909	-0.056199	-1.7488	1.3889	-0.40519	-1.7624	0.97181	-0.49647	-1.8215	1.2436	-0.023212	-1.8225	0.9567	0.049488	-1.7923	0.82565	0.087143	-1.6799	1.3609	-0.24009	-1.7699	0.87181	0.04804	-1.7217	0.79407	-0.5225	-1.7091	0.84891	-0.47482	-1.7767	1.2336	-0.45919	-1.6291	0.45487	-0.11215	-1.8052	0.056106	-0.20665	-1.8641	1.0972	-0.0090503	-1.7352	0.45137	-0.25485	-1.8896	0.1081	-0.1265	-1.8168	0.068989	-0.32654	-1.8348	0.8742	0.071038	-1.7028	0.024373	-0.33174	-1.7829	0.21472	-0.35	-1.7462	0.73279	-0.032536	-1.6891	0.033485	-0.23314	-1.6555	0.029844	-0.24351	-1.7653	0.85236	-0.519	-1.7815	0.024401	-0.32074	-1.6671	0.44596	-0.2262	-1.8786	0.17563	-0.21108	-1.891	0.14569	-0.20816	0	0	0	0	0	0	0	0	0	0	0	0	0	0	0	0	0	0	0	0	0	0	0	0	0	0	0	0	0	0	0	0	0	
